<svg xmlns="http://www.w3.org/2000/svg" viewBox="0 0 260 240" width="260" height="240">
  <rect x="0" y="0" width="260" height="240" rx="48" fill="#8FC1D8"/>
  <g transform="translate(20,20)">
    <rect x="40" y="0" width="20" height="10" fill="#4F7E96"/>
    <rect x="120" y="0" width="20" height="10" fill="#4F7E96"/>
    <rect x="30" y="10" width="40" height="10" fill="#4F7E96"/>
    <rect x="110" y="10" width="40" height="10" fill="#4F7E96"/>
    <rect x="20" y="20" width="60" height="10" fill="#4F7E96"/>
    <rect x="100" y="20" width="60" height="10" fill="#4F7E96"/>
    <rect x="20" y="30" width="60" height="10" fill="#4F7E96"/>
    <rect x="100" y="30" width="60" height="10" fill="#4F7E96"/>
    <rect x="20" y="40" width="140" height="10" fill="#4F7E96"/>
    <rect x="10" y="50" width="160" height="10" fill="#4F7E96"/>
    <rect x="200" y="50" width="20" height="10" fill="#4F7E96"/>
    <rect x="10" y="60" width="160" height="10" fill="#4F7E96"/>
    <rect x="190" y="60" width="30" height="10" fill="#4F7E96"/>
    <rect x="10" y="70" width="40" height="10" fill="#4F7E96"/>
    <rect x="60" y="70" width="60" height="10" fill="#4F7E96"/>
    <rect x="130" y="70" width="40" height="10" fill="#4F7E96"/>
    <rect x="180" y="70" width="30" height="10" fill="#4F7E96"/>
    <rect x="10" y="80" width="70" height="10" fill="#4F7E96"/>
    <rect x="90" y="80" width="80" height="10" fill="#4F7E96"/>
    <rect x="180" y="80" width="20" height="10" fill="#4F7E96"/>
    <rect x="10" y="90" width="60" height="10" fill="#4F7E96"/>
    <rect x="80" y="90" width="10" height="10" fill="#4F7E96"/>
    <rect x="100" y="90" width="70" height="10" fill="#4F7E96"/>
    <rect x="190" y="90" width="20" height="10" fill="#4F7E96"/>
    <rect x="0" y="100" width="180" height="10" fill="#4F7E96"/>
    <rect x="190" y="100" width="20" height="10" fill="#4F7E96"/>
    <rect x="0" y="110" width="200" height="10" fill="#4F7E96"/>
    <rect x="0" y="120" width="190" height="10" fill="#4F7E96"/>
    <rect x="0" y="130" width="190" height="10" fill="#4F7E96"/>
    <rect x="0" y="140" width="180" height="10" fill="#4F7E96"/>
    <rect x="0" y="150" width="180" height="10" fill="#4F7E96"/>
    <rect x="0" y="160" width="180" height="10" fill="#4F7E96"/>
    <rect x="0" y="170" width="180" height="10" fill="#4F7E96"/>
    <rect x="0" y="180" width="50" height="10" fill="#4F7E96"/>
    <rect x="60" y="180" width="50" height="10" fill="#4F7E96"/>
    <rect x="120" y="180" width="60" height="10" fill="#4F7E96"/>
    <rect x="0" y="190" width="50" height="10" fill="#4F7E96"/>
    <rect x="60" y="190" width="50" height="10" fill="#4F7E96"/>
    <rect x="120" y="190" width="60" height="10" fill="#4F7E96"/>
    <rect x="50" y="70" width="10" height="10" fill="#24404E"/>
    <rect x="120" y="70" width="10" height="10" fill="#24404E"/>
    <rect x="80" y="80" width="10" height="10" fill="#24404E"/>
    <rect x="70" y="90" width="10" height="10" fill="#24404E"/>
    <rect x="90" y="90" width="10" height="10" fill="#24404E"/>
  </g>
</svg>
